<?xml version="1.0" encoding="UTF-8"?>
<svg id="_レイヤー_1" xmlns="http://www.w3.org/2000/svg" width="1080" height="1080" version="1.1" viewBox="0 0 1080 1080">
  <!-- Generator: Adobe Illustrator 30.0.0, SVG Export Plug-In . SVG Version: 2.1.1 Build 123)  -->
  <defs>
    <style>
      .st0 {
        fill: #46aaa5;
      }

      .st1 {
        fill: #fff;
      }

      .st2 {
        fill: #333;
      }
    </style>
  </defs>
  <path class="st0" d="M605.6,74.4c-4.4-.3-8.6,2.1-10.5,6.2l-34.5,75.8-29-9.7c-174,0-419.8,96.7-419.8,419.8s13.7,167.2,42,223.1c25.2,49.7,61.5,92.4,107.7,126.7,76.5,56.8,179.5,89.4,282.6,89.4s158.5-25.7,211.4-72.5c55.6-49.1,84.9-118,84.9-199.3s-24.7-142.1-72.6-180.1c-37.2-29.5-89-34.5-140.9-34.5-92.2,0-161.7,68.1-161.7,158.4s24.6,81.2,45.2,97.7c26,20.8,55.9,28.2,73.6,28.2,65.5,0,103.1-32.4,103.1-88.8s-27.5-58.3-39.4-61.7c-22.7-6.6-49.2,2.1-60.3,19.8-2.3,3.6-2.1,8.3.3,11.8,2.5,3.5,6.8,5.2,11,4.3,4.3-.9,18.3-2.3,25.2,3.2,1.2,1,4.8,3.9,4.8,13.1,0,13.3-3.6,25.6-29.4,25.6s-14.4-2.2-24.8-9.1c-12.5-8.4-18.9-20.7-18.9-36.4,0-42.9,27.7-67.5,76.1-67.5s89.4,38.5,89.4,105.6-21.7,70.9-40,86.3c-24.8,21-57.9,32.6-93.3,32.6s-81.6-15.3-112.6-40.9c-25.3-21-55.5-58.7-55.5-119.5s21.3-115.9,61.6-151.9c33.7-30.1,79.9-47.4,126.7-47.5,4.5.1,95.6,2.8,173.3,2.8s104.4-14.5,138.6-42c31.8-25.5,49.3-60.3,49.3-97.9,0-71.7-104.6-251.6-363.4-271.1h0Z"/>
  <path class="st1" d="M764.1,207c41.6,0,78.9,34.6,78.9,76.2s-33.8,60.6-75.3,63.2c-65.9,4.2-82.4-30.7-82.4-72.3s37.3-67.1,78.9-67.1Z"/>
  <path class="st2" d="M737.6,229.5c16.6,0,30.1,8.9,30.1,25.5s-13.5,30.1-30.1,30.1-30.1-13.5-30.1-30.1,13.5-25.5,30.1-25.5Z"/>
</svg>